<svg width="128" height="68" viewBox="0 0 128 68" fill="none" xmlns="http://www.w3.org/2000/svg">
<g filter="url(#filter0_d)">
<rect x="10" y="10" width="108" height="48" rx="16" fill="white"/>
</g>
<path d="M50.952 38.28C52.488 36.952 53.696 35.864 54.576 35.016C55.472 34.152 56.216 33.256 56.808 32.328C57.4 31.4 57.696 30.472 57.696 29.544C57.696 28.584 57.464 27.832 57 27.288C56.552 26.744 55.84 26.472 54.864 26.472C53.92 26.472 53.184 26.776 52.656 27.384C52.144 27.976 51.872 28.776 51.84 29.784H49.2C49.248 27.96 49.792 26.568 50.832 25.608C51.888 24.632 53.224 24.144 54.84 24.144C56.584 24.144 57.944 24.624 58.92 25.584C59.912 26.544 60.408 27.824 60.408 29.424C60.408 30.576 60.112 31.688 59.52 32.76C58.944 33.816 58.248 34.768 57.432 35.616C56.632 36.448 55.608 37.416 54.36 38.52L53.28 39.48H60.888V41.76H49.224V39.768L50.952 38.28ZM66.6996 37.248C66.8596 38.048 67.2036 38.656 67.7316 39.072C68.2596 39.488 68.9716 39.696 69.8676 39.696C71.0036 39.696 71.8356 39.248 72.3636 38.352C72.8916 37.456 73.1556 35.928 73.1556 33.768C72.7716 34.312 72.2276 34.736 71.5236 35.04C70.8356 35.328 70.0836 35.472 69.2676 35.472C68.2276 35.472 67.2836 35.264 66.4356 34.848C65.5876 34.416 64.9156 33.784 64.4196 32.952C63.9396 32.104 63.6996 31.08 63.6996 29.88C63.6996 28.12 64.2116 26.72 65.2356 25.68C66.2756 24.624 67.6996 24.096 69.5076 24.096C71.6836 24.096 73.2276 24.824 74.1396 26.28C75.0676 27.72 75.5316 29.936 75.5316 32.928C75.5316 34.992 75.3556 36.68 75.0036 37.992C74.6676 39.304 74.0756 40.296 73.2276 40.968C72.3796 41.64 71.2036 41.976 69.6996 41.976C67.9876 41.976 66.6676 41.528 65.7396 40.632C64.8116 39.736 64.2916 38.608 64.1796 37.248H66.6996ZM69.7476 33.168C70.7076 33.168 71.4596 32.872 72.0036 32.28C72.5636 31.672 72.8436 30.872 72.8436 29.88C72.8436 28.776 72.5476 27.92 71.9556 27.312C71.3796 26.688 70.5876 26.376 69.5796 26.376C68.5716 26.376 67.7716 26.696 67.1796 27.336C66.6036 27.96 66.3156 28.784 66.3156 29.808C66.3156 30.784 66.5956 31.592 67.1556 32.232C67.7316 32.856 68.5956 33.168 69.7476 33.168Z" fill="#404040"/>
<path d="M78.28 25.76C78.28 25.2333 78.4433 24.81 78.77 24.49C79.1033 24.17 79.53 24.01 80.05 24.01C80.57 24.01 80.9933 24.17 81.32 24.49C81.6467 24.81 81.81 25.2333 81.81 25.76C81.81 26.1133 81.7333 26.4233 81.58 26.69C81.4267 26.9567 81.2133 27.1633 80.94 27.31C80.6733 27.4567 80.37 27.53 80.03 27.53C79.51 27.53 79.0867 27.37 78.76 27.05C78.44 26.7233 78.28 26.2933 78.28 25.76ZM81.08 25.76C81.08 25.38 80.98 25.0833 80.78 24.87C80.5867 24.65 80.34 24.54 80.04 24.54C79.7467 24.54 79.5 24.65 79.3 24.87C79.1067 25.0833 79.01 25.38 79.01 25.76C79.01 26.1533 79.1033 26.4567 79.29 26.67C79.4833 26.8767 79.73 26.98 80.03 26.98C80.33 26.98 80.58 26.8733 80.78 26.66C80.98 26.4467 81.08 26.1467 81.08 25.76ZM82.5316 27.51C82.5316 26.83 82.6849 26.22 82.9916 25.68C83.2982 25.1333 83.7149 24.7067 84.2416 24.4C84.7749 24.0933 85.3649 23.94 86.0116 23.94C86.7716 23.94 87.4349 24.1233 88.0016 24.49C88.5682 24.8567 88.9816 25.3767 89.2416 26.05H88.1516C87.9582 25.63 87.6782 25.3067 87.3116 25.08C86.9516 24.8533 86.5182 24.74 86.0116 24.74C85.5249 24.74 85.0882 24.8533 84.7016 25.08C84.3149 25.3067 84.0116 25.63 83.7916 26.05C83.5716 26.4633 83.4616 26.95 83.4616 27.51C83.4616 28.0633 83.5716 28.55 83.7916 28.97C84.0116 29.3833 84.3149 29.7033 84.7016 29.93C85.0882 30.1567 85.5249 30.27 86.0116 30.27C86.5182 30.27 86.9516 30.16 87.3116 29.94C87.6782 29.7133 87.9582 29.39 88.1516 28.97H89.2416C88.9816 29.6367 88.5682 30.1533 88.0016 30.52C87.4349 30.88 86.7716 31.06 86.0116 31.06C85.3649 31.06 84.7749 30.91 84.2416 30.61C83.7149 30.3033 83.2982 29.88 82.9916 29.34C82.6849 28.8 82.5316 28.19 82.5316 27.51ZM94.4022 32.06H93.4922V23.05H94.4022V32.06ZM98.3484 25.76C98.3484 25.2333 98.5117 24.81 98.8384 24.49C99.1717 24.17 99.5984 24.01 100.118 24.01C100.638 24.01 101.062 24.17 101.388 24.49C101.715 24.81 101.878 25.2333 101.878 25.76C101.878 26.1133 101.802 26.4233 101.648 26.69C101.495 26.9567 101.282 27.1633 101.008 27.31C100.742 27.4567 100.438 27.53 100.098 27.53C99.5784 27.53 99.155 27.37 98.8284 27.05C98.5084 26.7233 98.3484 26.2933 98.3484 25.76ZM101.148 25.76C101.148 25.38 101.048 25.0833 100.848 24.87C100.655 24.65 100.408 24.54 100.108 24.54C99.815 24.54 99.5684 24.65 99.3684 24.87C99.175 25.0833 99.0784 25.38 99.0784 25.76C99.0784 26.1533 99.1717 26.4567 99.3584 26.67C99.5517 26.8767 99.7984 26.98 100.098 26.98C100.398 26.98 100.648 26.8733 100.848 26.66C101.048 26.4467 101.148 26.1467 101.148 25.76ZM106.88 24.03V24.77H103.85V27.12H106.31V27.86H103.85V31H102.94V24.03H106.88Z" fill="#404040"/>
<g clip-path="url(#clip0)">
<path d="M30.0503 24.8C34.0467 24.8 37.2864 28.0234 37.2864 32C37.2864 35.9764 34.0467 39.2 30.0503 39.2C26.0537 39.2 22.8141 35.9764 22.8141 32C22.8141 28.0234 26.0537 24.8 30.0503 24.8Z" fill="#F6D759"/>
<path d="M30.8543 38.4C26.8579 38.4 23.6181 35.1764 23.6181 31.2C23.6181 29.4154 24.272 27.7838 25.3526 26.5258C23.7994 27.8464 22.8141 29.8082 22.8141 32C22.8141 35.9764 26.0539 39.2 30.0503 39.2C32.2559 39.2 34.2274 38.2166 35.5552 36.669C34.2903 37.7464 32.6501 38.4 30.8543 38.4Z" fill="#DDC14E"/>
<g filter="url(#filter1_d)">
<path d="M39.2128 35.3084C39.3298 34.9824 39.3969 34.6326 39.3969 34.2666C39.3969 32.5544 38.0021 31.1666 36.2813 31.1666C34.9702 31.1666 33.85 31.9734 33.3905 33.1146C32.9025 32.6346 32.2438 32.3658 31.5577 32.3666C30.1145 32.3666 28.9446 33.5306 28.9446 34.9666C28.9446 35.579 29.1585 36.141 29.5151 36.5854C28.7382 36.6982 28.1406 37.3622 28.1406 38.1666C28.1406 38.591 28.31 38.9979 28.6116 39.298C28.9132 39.5981 29.3222 39.7666 29.7487 39.7666H37.3869C38.8301 39.7666 39.9999 38.6026 39.9999 37.1666C39.9999 36.438 39.698 35.7804 39.2128 35.3084Z" fill="white"/>
</g>
<g filter="url(#filter2_d)">
<path d="M21.1883 26.908C21.1178 26.7185 21.0774 26.5151 21.0774 26.3023C21.0774 25.3069 21.9175 24.5 22.9539 24.5C23.7436 24.5 24.4183 24.9691 24.6951 25.6326C24.989 25.3535 25.3857 25.1972 25.7989 25.1977C26.6682 25.1977 27.3728 25.8744 27.3728 26.7093C27.3728 27.0653 27.244 27.3921 27.0292 27.6505C27.4971 27.716 27.8571 28.1021 27.8571 28.5698C27.8571 28.8165 27.755 29.0531 27.5734 29.2275C27.3917 29.402 27.1454 29.5 26.8885 29.5H22.288C21.4188 29.5 20.7142 28.8233 20.7142 27.9884C20.7142 27.5648 20.896 27.1824 21.1883 26.908Z" fill="white"/>
</g>
</g>
<defs>
<filter id="filter0_d" x="0" y="0" width="128" height="68" filterUnits="userSpaceOnUse" color-interpolation-filters="sRGB">
<feFlood flood-opacity="0" result="BackgroundImageFix"/>
<feColorMatrix in="SourceAlpha" type="matrix" values="0 0 0 0 0 0 0 0 0 0 0 0 0 0 0 0 0 0 127 0" result="hardAlpha"/>
<feOffset/>
<feGaussianBlur stdDeviation="5"/>
<feComposite in2="hardAlpha" operator="out"/>
<feColorMatrix type="matrix" values="0 0 0 0 0.898039 0 0 0 0 0.901961 0 0 0 0 1 0 0 0 1 0"/>
<feBlend mode="normal" in2="BackgroundImageFix" result="effect1_dropShadow"/>
<feBlend mode="normal" in="SourceGraphic" in2="effect1_dropShadow" result="shape"/>
</filter>
<filter id="filter1_d" x="25.1406" y="28.1666" width="17.8593" height="14.6" filterUnits="userSpaceOnUse" color-interpolation-filters="sRGB">
<feFlood flood-opacity="0" result="BackgroundImageFix"/>
<feColorMatrix in="SourceAlpha" type="matrix" values="0 0 0 0 0 0 0 0 0 0 0 0 0 0 0 0 0 0 127 0" result="hardAlpha"/>
<feOffset/>
<feGaussianBlur stdDeviation="1.5"/>
<feComposite in2="hardAlpha" operator="out"/>
<feColorMatrix type="matrix" values="0 0 0 0 0.8375 0 0 0 0 0.84375 0 0 0 0 1 0 0 0 1 0"/>
<feBlend mode="normal" in2="BackgroundImageFix" result="effect1_dropShadow"/>
<feBlend mode="normal" in="SourceGraphic" in2="effect1_dropShadow" result="shape"/>
</filter>
<filter id="filter2_d" x="17.7142" y="21.5" width="13.1429" height="11" filterUnits="userSpaceOnUse" color-interpolation-filters="sRGB">
<feFlood flood-opacity="0" result="BackgroundImageFix"/>
<feColorMatrix in="SourceAlpha" type="matrix" values="0 0 0 0 0 0 0 0 0 0 0 0 0 0 0 0 0 0 127 0" result="hardAlpha"/>
<feOffset/>
<feGaussianBlur stdDeviation="1.5"/>
<feComposite in2="hardAlpha" operator="out"/>
<feColorMatrix type="matrix" values="0 0 0 0 0.8375 0 0 0 0 0.84375 0 0 0 0 1 0 0 0 1 0"/>
<feBlend mode="normal" in2="BackgroundImageFix" result="effect1_dropShadow"/>
<feBlend mode="normal" in="SourceGraphic" in2="effect1_dropShadow" result="shape"/>
</filter>
<clipPath id="clip0">
<rect width="20" height="20" fill="white" transform="translate(20 22)"/>
</clipPath>
</defs>
</svg>
