<svg width="15" height="16" viewBox="0 0 15 16" fill="none" xmlns="http://www.w3.org/2000/svg">
<path d="M5.5 8C5.5 6.89543 6.39543 6 7.5 6C8.60457 6 9.5 6.89543 9.5 8C9.5 9.10457 8.60457 10 7.5 10C6.39543 10 5.5 9.10457 5.5 8Z" fill="#FF0000"/>
<path fill-rule="evenodd" clip-rule="evenodd" d="M8.10012 0.999985C9.70012 1.09999 11.2001 1.89999 12.3001 2.99999C13.6001 4.39999 14.3001 6.09999 14.3001 8.09999C14.3001 9.69999 13.7001 11.2 12.7001 12.5C11.7001 13.7 10.3001 14.6 8.70012 14.9C7.10012 15.2 5.50012 15 4.10012 14.2C2.70012 13.4 1.60012 12.2 1.00012 10.7C0.40012 9.19999 0.30012 7.49999 0.80012 5.99999C1.30012 4.39999 2.20012 3.09999 3.60012 2.19999C4.90012 1.29999 6.50012 0.899985 8.10012 0.999985ZM8.60012 13.9C9.90012 13.6 11.1001 12.9 12.0001 11.8C12.8001 10.7 13.3001 9.39999 13.2001 7.99999C13.2001 6.39999 12.6001 4.79999 11.5001 3.69999C10.5001 2.69999 9.30012 2.09999 7.90012 1.99999C6.60012 1.89999 5.20012 2.19999 4.10012 2.99999C3.00012 3.79999 2.20012 4.89999 1.80012 6.29999C1.40012 7.59999 1.40012 8.99999 2.00012 10.3C2.60012 11.6 3.50012 12.6 4.70012 13.3C5.90012 14 7.30012 14.2 8.60012 13.9Z" fill="#FF0000"/>
</svg>
