<?xml version="1.0" ?><svg id="Icons" viewBox="0 0 64 64" xmlns="http://www.w3.org/2000/svg"><defs><style>.cls-1{fill:#231f20;}</style></defs><title/><path class="cls-1" d="M48,4H20a7,7,0,0,0-7,7v2H11a7,7,0,0,0-7,7V53a7,7,0,0,0,7,7H39a7,7,0,0,0,7-7V51h2a7,7,0,0,0,7-7V11A7,7,0,0,0,48,4ZM42,53a3,3,0,0,1-3,3H11a3,3,0,0,1-3-3V20a3,3,0,0,1,3-3H39a3,3,0,0,1,3,3Zm9-9a3,3,0,0,1-3,3H46V20a7,7,0,0,0-7-7H17V11a3,3,0,0,1,3-3H48a3,3,0,0,1,3,3Z"/><path class="cls-1" d="M36,22H14a2,2,0,0,0,0,4H36a2,2,0,0,0,0-4Z"/><path class="cls-1" d="M36,30H14a2,2,0,0,0,0,4H36a2,2,0,0,0,0-4Z"/><path class="cls-1" d="M25,38H14a2,2,0,0,0,0,4H25a2,2,0,0,0,0-4Z"/></svg>