<svg width="24" height="24" viewBox="0 0 24 24" fill="none" xmlns="http://www.w3.org/2000/svg">
<path fill-rule="evenodd" clip-rule="evenodd" d="M15.0005 7C15.0005 7.55228 15.4482 8 16.0005 8C16.5528 8 17.0005 7.55228 17.0005 7V5L21.0005 5C21.5528 5 22.0005 4.55228 22.0005 4C22.0005 3.44771 21.5528 3 21.0005 3L17.0005 3V1C17.0005 0.447715 16.5528 0 16.0005 0C15.4482 0 15.0005 0.447715 15.0005 1V4V7ZM12 10.9995C11.4477 10.9995 11 11.4472 11 11.9995C11 12.5518 11.4477 12.9995 12 12.9995H21C21.5523 12.9995 22 12.5518 22 11.9995C22 11.4472 21.5523 10.9995 21 10.9995H12ZM2 19.999C2 19.4467 2.44772 18.999 3 18.999H10C10.5523 18.999 11 19.4467 11 19.999C11 20.5513 10.5523 20.999 10 20.999H3C2.44772 20.999 2 20.5513 2 19.999ZM14.9995 18.999V16.999C14.9995 16.4467 14.5518 15.999 13.9995 15.999C13.4472 15.999 12.9995 16.4467 12.9995 16.999V19.999V22.999C12.9995 23.5513 13.4472 23.999 13.9995 23.999C14.5518 23.999 14.9995 23.5513 14.9995 22.999V20.999H20.9995C21.5518 20.999 21.9995 20.5513 21.9995 19.999C21.9995 19.4467 21.5518 18.999 20.9995 18.999H14.9995ZM2 11.9995C2 11.4472 2.44772 10.9995 3 10.9995H6.99951V8.99951C6.99951 8.44723 7.44723 7.99951 7.99951 7.99951C8.5518 7.99951 8.99951 8.44723 8.99951 8.99951V11.968C8.99984 11.9784 9 11.989 9 11.9995C9 12.0101 8.99984 12.0206 8.99951 12.0311V14.9995C8.99951 15.5518 8.5518 15.9995 7.99951 15.9995C7.44723 15.9995 6.99951 15.5518 6.99951 14.9995V12.9995H3C2.44772 12.9995 2 12.5518 2 11.9995ZM2 4C2 3.44772 2.44772 3 3 3L12 3C12.5523 3 13 3.44771 13 4C13 4.55228 12.5523 5 12 5L3 5C2.44772 5 2 4.55228 2 4Z" fill="#2C73FF"/>
</svg>
