<svg width="160" height="87" viewBox="0 0 160 87" fill="none" xmlns="http://www.w3.org/2000/svg">
<path d="M118.02 60.6154C118.02 60.6154 107.351 60.7158 102.663 53.2588C97.9762 45.8018 98.7056 34.9268 103.498 30.7854C103.498 30.7854 100.372 39.1741 107.04 42.1774C107.04 42.1774 103.38 38.3447 105.732 31.2001C108.082 24.0536 114.853 19.187 115.375 14.8373C115.895 10.4877 114.645 6.86329 113.916 6.44861C113.916 6.44861 117.873 7.06972 119.749 14.6309C119.749 14.6309 120.479 19.0152 120.132 22.6743C120.132 22.6743 122.789 23.036 123.569 18.2388C123.569 18.2388 124.143 14.5962 122.98 11.9382C122.98 11.9382 128.189 14.2162 129.368 21.6038C129.368 21.6038 130.168 26.7828 127.772 31.4083C125.376 36.0338 128.756 38.036 129.497 38.2442C130.237 38.4525 135.099 37.8643 132.251 28.405C132.251 28.405 135.388 31.0996 135.549 37.4843C135.707 43.6973 133.813 49.6362 132.885 51.8156C132.312 52.9135 129.181 60.7012 118.02 60.6154Z" fill="url(#paint0_linear)"/>
<path d="M118.033 60.6172C118.033 60.6172 104.343 60.6848 104.273 44.2782C104.273 44.2782 107.398 52.1445 112.468 50.0601C112.468 50.0601 103.718 34.7971 114.969 22.0204C114.969 22.0204 110.454 32.9137 120.038 38.6279C120.038 38.6279 123.718 35.8037 123.648 28.1384C123.648 28.1384 129.067 36.3426 123.65 46.3608C123.65 46.3608 128.997 48.4452 131.706 42.3272C131.706 42.3272 134.502 60.2135 118.033 60.6172Z" fill="url(#paint1_linear)"/>
<path d="M121.774 40.6045C122.616 40.4054 123.963 36.359 121.045 30.9735C121.045 30.9735 125.732 34.2874 126.149 38.8453C126.566 43.4032 124.9 49.6161 124.9 49.6161C124.9 49.6161 128.442 49.3056 129.797 44.6454C129.797 44.6454 131.45 61.8886 117.942 60.5423C117.942 60.5423 107.766 59.9212 107.036 47.5957C107.036 47.5957 109.276 51.5836 114.642 52.1517C114.642 52.1517 105.805 41.9855 114.693 28.279C114.239 29.8683 115.976 41.6403 121.774 40.6045Z" fill="url(#paint2_linear)"/>
<path d="M119.584 60.6135C121.512 60.7195 128.545 58.1948 124.167 49.6874C124.167 49.6874 122.605 47.2541 119.011 45.2866C115.417 43.3191 114.897 40.7817 114.948 37.6231C114.948 37.6231 113.394 41.7919 115.002 44.3038C115.373 44.8829 116.969 46.2822 117.657 46.6859C121.719 49.0681 123.281 51.9672 123.49 52.4861C123.7 53.0049 124.823 57.5701 120.887 58.9073C116.451 60.4144 113.295 55.9753 112.775 53.9566C112.773 53.953 113.385 60.7688 119.584 60.6135Z" fill="url(#paint3_linear)"/>
<path d="M113.941 54.4901C114.428 56.3772 119.369 63.4104 123.483 59.0462C123.952 58.5748 125.515 54.0261 120.775 50.6136C115.051 46.4941 116.198 42.7985 116.308 42.4752C116.308 42.4752 113.848 46.896 118.327 50.3359C122.807 53.7758 119.213 57.6596 119.213 57.6596C119.213 57.6596 117.172 57.9848 113.941 54.4901Z" fill="url(#paint4_linear)"/>
<path d="M26.6147 72.2429C26.6147 74.7785 25.8228 76.7222 24.2408 78.0759C22.6587 79.4296 20.3583 80.1055 17.3413 80.1055H8.03662V53.0486H16.8856C19.5296 53.0486 21.6096 53.6642 23.1236 54.8937C24.6376 56.1249 25.3947 57.8093 25.3947 59.9503C25.3947 62.559 24.2022 64.4917 21.8172 65.7467C23.4213 66.1888 24.6229 67.0054 25.4185 68.1928C26.216 69.3803 26.6147 70.7303 26.6147 72.2429ZM11.5167 64.3803H16.8103C18.5521 64.3803 19.8346 64.0643 20.6578 63.4303C21.481 62.7964 21.8925 61.7424 21.8925 60.2645C21.8925 58.9364 21.492 57.9353 20.6909 57.2649C19.8898 56.5944 18.4988 56.2583 16.5181 56.2583H11.5167V64.3803ZM11.4671 77.1259H17.1116C20.8213 77.1259 22.6753 75.575 22.6753 72.4749C22.6753 70.8636 22.2453 69.6853 21.3891 68.94C20.531 68.1965 18.9729 67.8238 16.7129 67.8238H11.4671V77.1259Z" fill="black"/>
<path d="M34.486 80.1073H31.0941V52.1498H34.486V80.1073Z" fill="black"/>
<path d="M52.3293 77.484C50.6426 79.3875 48.7464 80.3375 46.6407 80.3375C42.3467 80.3375 40.1987 78.0065 40.1987 73.3445V60.9642H43.5906V73.202C43.5906 74.7474 43.8662 75.86 44.4156 76.5377C44.965 77.2155 45.8745 77.5553 47.1423 77.5553C49.033 77.5553 50.7602 76.545 52.3275 74.5228V60.9642H55.701V79.8917H52.3293V77.484Z" fill="black"/>
<path d="M69.4796 80.5531C66.6812 80.5531 64.4303 79.6817 62.7326 77.9389C61.033 76.1962 60.1841 73.7683 60.1841 70.6518C60.1841 67.559 61.0072 65.1367 62.6517 63.3829C64.2962 61.6292 66.446 60.7523 69.1029 60.7523C71.8186 60.7523 73.4998 61.4063 75.1204 63.1308C76.741 64.8553 77.0901 69.1027 77.0901 70.6536L77.0809 71.4556H63.7027C63.846 73.6441 64.4524 75.2681 65.5236 76.3259C66.5948 77.3836 67.9122 77.9134 69.4796 77.9134C70.6647 77.9134 71.7322 77.6138 72.6822 77.0127C73.6339 76.4117 73.8269 75.7175 74.3211 74.6379L77.3602 75.133C76.9799 77.0657 75.8903 78.2915 75.0157 78.9674C73.5549 80.0927 71.6569 80.5531 69.4796 80.5531ZM73.6799 68.814C73.6799 67.2704 73.4704 65.6829 72.515 64.7786C71.5577 63.8743 70.4901 63.372 69.1029 63.372C67.7505 63.372 66.6205 63.8524 65.621 64.7183C64.7997 65.4308 64.0537 67.1918 63.9398 68.8122H73.6799V68.814Z" fill="black"/>
<path d="M93.2427 80.553C89.5807 80.553 86.6574 79.3163 84.4746 76.8428C82.2899 74.3693 81.1985 71.0226 81.1985 66.8008C81.1985 62.5791 82.2899 59.2323 84.4746 56.7588C86.6593 54.2853 89.5807 53.0486 93.2427 53.0486C96.0558 53.0486 98.63 53.5162 100.609 55.0763C102.588 56.6364 103.521 59.0058 103.769 61.5579H100.238C100.096 59.8772 99.5652 58.2276 98.2882 57.2356C97.0112 56.2437 95.2234 56.061 93.2795 56.061C90.6538 56.061 88.5757 56.989 87.0451 58.8451C85.5146 60.7011 84.7502 63.3536 84.7502 66.8008C84.7502 70.2352 85.509 72.8841 87.0286 74.7474C88.5481 76.6108 90.6079 77.5406 93.2096 77.5406C95.2345 77.5406 96.8716 77.0328 98.1192 76.0171C99.3668 75.0014 100.074 73.5491 100.238 71.662H103.769C103.521 74.4917 102.439 76.682 100.519 78.2293C98.5988 79.7785 96.1734 80.553 93.2427 80.553Z" fill="black"/>
<path d="M129.821 80.1073H125.89L122.84 72.1516H111.823L108.916 80.1073H105.238L115.34 53.9547H119.09L129.821 80.1073ZM121.817 69.4022L117.187 57.2704L112.773 69.4022H121.817Z" fill="black"/>
<path d="M133.91 53.3939H142.791C144.738 53.3939 146.37 53.6003 147.685 54.015C149.001 54.4297 150.043 55.3249 150.811 56.7004C151.579 58.0779 151.963 59.6179 151.963 61.3223C151.963 64.0643 151.2 66.1451 149.674 67.5663C148.147 68.9876 145.94 69.6964 143.05 69.6964H137.06V80.5531H133.91V53.3939ZM137.392 66.9726H143.099C145.018 66.9726 146.383 66.4976 147.199 65.5495C148.014 64.6014 148.422 63.2313 148.422 61.441C148.422 60.2481 148.196 59.1904 147.746 58.2697C147.294 57.3471 146.723 56.7644 146.032 56.5214C145.339 56.2766 144.341 56.1561 143.04 56.1561H137.396V66.9726H137.392Z" fill="black"/>
<defs>
<linearGradient id="paint0_linear" x1="117.528" y1="59.6307" x2="117.528" y2="10.3922" gradientUnits="userSpaceOnUse">
<stop stop-color="#1B79F1"/>
<stop offset="1" stop-color="#053A99"/>
</linearGradient>
<linearGradient id="paint1_linear" x1="118.014" y1="58.7117" x2="118.181" y2="22.7294" gradientUnits="userSpaceOnUse">
<stop stop-color="#0059E5"/>
<stop offset="1" stop-color="#022D8A"/>
</linearGradient>
<linearGradient id="paint2_linear" x1="118.447" y1="59.6058" x2="118.447" y2="29.2602" gradientUnits="userSpaceOnUse">
<stop stop-color="#48CCFC"/>
<stop offset="1" stop-color="#1F88F6"/>
</linearGradient>
<linearGradient id="paint3_linear" x1="119.175" y1="58.5061" x2="119.175" y2="39.0835" gradientUnits="userSpaceOnUse">
<stop stop-color="#3AB5F6"/>
<stop offset="1" stop-color="#197CF3"/>
</linearGradient>
<linearGradient id="paint4_linear" x1="119.025" y1="60.4501" x2="119.025" y2="43.586" gradientUnits="userSpaceOnUse">
<stop stop-color="#DAECF3"/>
<stop offset="1" stop-color="#61CCF6"/>
</linearGradient>
</defs>
</svg>
