<svg width="20" height="20" viewBox="0 0 20 20" fill="none" xmlns="http://www.w3.org/2000/svg">
<path d="M13.9286 6.96624H14.8452C14.8452 6.96624 15.0417 6.96624 15.1944 6.96624H18.0972C18.25 6.96624 18.4028 6.81346 18.4028 6.5843V2.76485C18.4028 2.53569 18.25 2.38291 18.0208 2.38291H11.1458C10.9167 2.38291 10.7639 2.53569 10.7639 2.76485V6.5843C10.7639 6.81346 10.9167 6.96624 11.1458 6.96624H12.6736C12.9028 6.96624 13.2738 6.96624 13.2738 6.96624H13.9286ZM10 2.76485C10 2.15374 10.5347 1.61902 11.1458 1.61902H18.0208C18.6319 1.61902 19.1667 2.15374 19.1667 2.76485V6.5843C19.1667 7.19541 18.6319 7.73013 18.0208 7.73013H15.2708H14.0302C14.0302 7.73013 13.6966 7.73013 13.6202 7.73013C13.5439 7.73013 13.4811 7.73013 13.4048 7.73013H13.1801H12.2917H11.1458C10.5347 7.73013 10 7.19541 10 6.5843V2.76485Z" fill="#B345D2" stroke="#B345D2"/>
<path d="M8.09028 5.39484V11.5059C8.09028 11.5823 8.01389 11.7351 8.01389 11.8115L3.65972 16.0893C3.43056 15.9365 3.27778 15.7073 3.125 15.5546L7.32639 11.3532V5.39484H7.70833H8.09028Z" fill="#B345D2" stroke="#B345D2"/>
<path d="M8.0903 5.01286V5.39481C7.93753 5.39481 7.86114 5.39481 7.70836 5.39481C7.55558 5.39481 7.47919 5.39481 7.32642 5.39481V5.01286C7.32642 4.7837 7.47919 4.63092 7.70836 4.63092C7.93753 4.63092 8.0903 4.7837 8.0903 5.01286Z" fill="#B345D2" stroke="#B345D2"/>
<path d="M14.5834 11.5059C14.5834 15.3254 11.5278 18.3809 7.70838 18.3809C5.79865 18.3809 4.1181 17.6171 2.89587 16.3948C2.97226 16.4712 3.04865 16.4712 3.12504 16.4712C3.20143 16.4712 3.35421 16.3948 3.35421 16.3948L3.65976 16.0893C4.72921 17.0059 6.1806 17.6171 7.70838 17.6171C11.0695 17.6171 13.8195 14.8671 13.8195 11.5059C13.8195 10.9712 13.7431 10.5129 13.6667 10.0546C13.5903 9.90178 13.6667 9.749 13.8195 9.67262C13.8195 9.67262 13.8959 9.59623 13.9723 9.59623C14.2014 9.51984 14.3542 9.67261 14.4306 9.90178C14.507 10.3601 14.5834 10.9712 14.5834 11.5059Z" fill="#B345D2" stroke="#B345D2"/>
<path d="M2.81942 16.3948C2.66664 16.2421 2.66664 16.0129 2.81942 15.8601L3.12497 15.5546L3.6597 16.0893L3.35414 16.3948C3.27775 16.4712 3.20136 16.4712 3.12497 16.4712C3.04858 16.4712 2.89581 16.4712 2.81942 16.3948Z" fill="#B345D2" stroke="#B345D2"/>
<path d="M2.81949 15.8601C2.66671 16.0128 2.66671 16.242 2.81949 16.3948C1.59726 15.0962 0.833374 13.4156 0.833374 11.5059C0.833374 7.61005 4.19449 4.40172 8.09032 4.63089C8.31949 4.63089 8.47226 4.78366 8.47226 5.01283C8.47226 5.242 8.31949 5.39477 8.09032 5.39477V5.01283C8.09032 4.78366 7.93754 4.63089 7.70837 4.63089C7.47921 4.63089 7.32643 4.78366 7.32643 5.01283V5.39477C4.1181 5.62394 1.59726 8.29755 1.59726 11.5059C1.59726 13.0337 2.20837 14.4851 3.12504 15.5545L2.81949 15.8601Z" fill="#B345D2" stroke="#B345D2"/>
</svg>
